<?xml version="1.0" encoding="UTF-8" standalone="no"?>
<svg
   xmlns:dc="http://purl.org/dc/elements/1.1/"
   xmlns:cc="http://creativecommons.org/ns#"
   xmlns:rdf="http://www.w3.org/1999/02/22-rdf-syntax-ns#"
   xmlns:svg="http://www.w3.org/2000/svg"
   xmlns="http://www.w3.org/2000/svg"
   xmlns:sodipodi="http://sodipodi.sourceforge.net/DTD/sodipodi-0.dtd"
   xmlns:inkscape="http://www.inkscape.org/namespaces/inkscape"
   viewBox="0 0 491.90045 92"
   version="1.1"
   id="svg4"
   sodipodi:docname="Discord_Color_Text_Logo.svg"
   width="491.90045"
   height="92"
   inkscape:version="0.92.4 (5da689c313, 2019-01-14)">
  <metadata
     id="metadata10">
    <rdf:RDF>
      <cc:Work
         rdf:about="">
        <dc:format>image/svg+xml</dc:format>
        <dc:type
           rdf:resource="http://purl.org/dc/dcmitype/StillImage" />
        <dc:title></dc:title>
      </cc:Work>
    </rdf:RDF>
  </metadata>
  <defs
     id="defs8" />
  <sodipodi:namedview
     pagecolor="#ffffff"
     bordercolor="#666666"
     borderopacity="1"
     objecttolerance="10"
     gridtolerance="10"
     guidetolerance="10"
     inkscape:pageopacity="0"
     inkscape:pageshadow="2"
     inkscape:window-width="1920"
     inkscape:window-height="1017"
     id="namedview6"
     showgrid="false"
     fit-margin-top="0"
     fit-margin-left="0"
     fit-margin-right="0"
     fit-margin-bottom="0"
     inkscape:zoom="1.0676692"
     inkscape:cx="63.341045"
     inkscape:cy="73.245931"
     inkscape:window-x="1272"
     inkscape:window-y="-8"
     inkscape:window-maximized="1"
     inkscape:current-layer="svg4" />
  <path
     d="M 33.2,1.3 H 0 v 37.6 l 22.1,20 V 22.4 H 34 c 7.5,0 11.2,3.7 11.2,9.5 v 27.9 c 0,5.8 -3.5,9.7 -11.2,9.7 H 0 V 90.7 H 33.2 C 51,90.8 67.7,81.9 67.7,61.3 V 31.2 C 67.7,10.4 51,1.3 33.2,1.3 Z M 207.3,61.4 V 30.6 c 0,-11.1 19.8,-13.7 25.8,-2.5 l 18.3,-7.5 C 244.3,4.7 231.1,0 220.2,0 202.4,0 184.8,10.4 184.8,30.6 v 30.8 c 0,20.3 17.6,30.6 35,30.6 11.2,0 24.6,-5.6 32,-20.1 l -19.6,-9.1 c -4.8,12.4 -24.9,9.4 -24.9,-1.4 z M 146.7,34.8 c -6.9,-1.5 -11.5,-4 -11.8,-8.3 0.4,-10.4 16.3,-10.7 25.6,-0.8 L 175.2,14.3 C 166,3 155.6,0 144.8,0 c -16.3,0 -32.1,9.2 -32.1,26.8 0,17.1 13,26.2 27.3,28.4 7.3,1 15.4,3.9 15.2,9 -0.6,9.6 -20.2,9.1 -29.1,-1.8 L 112,75.8 c 8.3,10.7 19.6,16.2 30.2,16.2 16.3,0 34.4,-9.5 35.1,-26.8 1,-22 -14.8,-27.5 -30.6,-30.4 z M 79.8,90.7 h 22.4 V 1.3 H 79.8 Z M 457.5,1.3 h -33.2 v 37.6 l 22.1,20 V 22.4 h 11.8 c 7.5,0 11.2,3.7 11.2,9.5 v 27.9 c 0,5.8 -3.5,9.7 -11.2,9.7 h -34 v 21.2 h 33.2 c 17.8,0.1 34.5,-8.8 34.5,-29.4 V 31.2 C 492,10.4 475.3,1.3 457.5,1.3 Z M 294.6,0 c -18.4,0 -36.7,10.1 -36.7,30.7 v 30.6 c 0,20.5 18.4,30.7 36.9,30.7 18.4,0 36.7,-10.2 36.7,-30.7 V 30.7 C 331.5,10.2 313,0 294.6,0 Z M 309,61.3 c 0,6.4 -7.2,9.7 -14.3,9.7 -7.2,0 -14.4,-3.2 -14.4,-9.7 V 30.7 c 0,-6.6 7,-10.1 14,-10.1 7.3,0 14.7,3.2 14.7,10.1 z M 411.8,30.7 C 411.3,9.7 397.1,1.3 378.8,1.3 H 343.3 V 90.8 H 366 V 62.3 h 4 l 20.6,28.4 h 28 L 394.4,60 c 10.8,-3.4 17.4,-12.7 17.4,-29.3 z M 379.2,42.8 H 366 V 22.4 h 13.2 c 14.2,0 14.2,20.4 0,20.4 z"
     id="path2"
     inkscape:connector-curvature="0"
     style="fill:#7289da" />
</svg>
